<?xml version="1.0" encoding="UTF-8" standalone="no"?>
<svg
   xmlns:osb="http://www.openswatchbook.org/uri/2009/osb"
   xmlns:dc="http://purl.org/dc/elements/1.1/"
   xmlns:cc="http://creativecommons.org/ns#"
   xmlns:rdf="http://www.w3.org/1999/02/22-rdf-syntax-ns#"
   xmlns:svg="http://www.w3.org/2000/svg"
   xmlns="http://www.w3.org/2000/svg"
   xmlns:sodipodi="http://sodipodi.sourceforge.net/DTD/sodipodi-0.dtd"
   xmlns:inkscape="http://www.inkscape.org/namespaces/inkscape"
   id="svg8"
   version="1.1"
   viewBox="0 0 3.095625 3.095625"
   height="3.0956249mm"
   width="3.0956249mm"
   sodipodi:docname="envelope_f2_a0.svg"
   inkscape:version="0.92.1 r15371">
  <sodipodi:namedview
     pagecolor="#ffffff"
     bordercolor="#666666"
     borderopacity="1"
     objecttolerance="10"
     gridtolerance="10"
     guidetolerance="10"
     inkscape:pageopacity="0"
     inkscape:pageshadow="2"
     inkscape:window-width="1600"
     inkscape:window-height="867"
     id="namedview14"
     showgrid="true"
     fit-margin-top="0"
     fit-margin-left="0"
     fit-margin-right="0"
     fit-margin-bottom="0"
     inkscape:zoom="32"
     inkscape:cx="4.6999214"
     inkscape:cy="-0.8752851"
     inkscape:window-x="1366"
     inkscape:window-y="0"
     inkscape:window-maximized="1"
     inkscape:current-layer="svg8"
     inkscape:measure-start="0,0"
     inkscape:measure-end="0,0">
    <inkscape:grid
       type="xygrid"
       id="grid4529"
       originx="-38.139688"
       originy="-9.035521" />
  </sodipodi:namedview>
  <defs
     id="defs2">
    <inkscape:path-effect
       is_visible="true"
       id="path-effect6126"
       effect="spiro" />
    <inkscape:path-effect
       effect="spiro"
       id="path-effect6123"
       is_visible="true" />
    <inkscape:path-effect
       is_visible="true"
       id="path-effect6120"
       effect="spiro" />
    <inkscape:path-effect
       effect="spiro"
       id="path-effect6117"
       is_visible="true" />
    <inkscape:path-effect
       effect="spiro"
       id="path-effect6114"
       is_visible="true" />
    <inkscape:path-effect
       effect="bspline"
       id="path-effect23010"
       is_visible="true"
       weight="33.333333"
       steps="2"
       helper_size="0"
       apply_no_weight="true"
       apply_with_weight="true"
       only_selected="false" />
    <inkscape:path-effect
       is_visible="true"
       id="path-effect5956"
       effect="spiro" />
    <inkscape:path-effect
       is_visible="true"
       id="path-effect5952"
       effect="spiro" />
    <inkscape:path-effect
       effect="spiro"
       id="path-effect5948"
       is_visible="true" />
    <inkscape:path-effect
       is_visible="true"
       id="path-effect5944"
       effect="spiro" />
    <inkscape:path-effect
       effect="spiro"
       id="path-effect5940"
       is_visible="true" />
    <inkscape:path-effect
       is_visible="true"
       id="path-effect5916"
       effect="spiro" />
    <inkscape:path-effect
       is_visible="true"
       id="path-effect5912"
       effect="spiro" />
    <inkscape:path-effect
       effect="spiro"
       id="path-effect5908"
       is_visible="true" />
    <inkscape:path-effect
       effect="bspline"
       id="path-effect4757"
       is_visible="true"
       weight="33.333333"
       steps="2"
       helper_size="0"
       apply_no_weight="true"
       apply_with_weight="true"
       only_selected="false" />
    <inkscape:path-effect
       effect="bspline"
       id="path-effect4753"
       is_visible="true"
       weight="33.333333"
       steps="2"
       helper_size="0"
       apply_no_weight="true"
       apply_with_weight="true"
       only_selected="false" />
    <inkscape:path-effect
       effect="bspline"
       id="path-effect5598"
       is_visible="true"
       weight="33.333333"
       steps="2"
       helper_size="0"
       apply_no_weight="true"
       apply_with_weight="true"
       only_selected="false" />
    <inkscape:path-effect
       only_selected="false"
       apply_with_weight="true"
       apply_no_weight="true"
       helper_size="0"
       steps="2"
       weight="33.333333"
       is_visible="true"
       id="path-effect5552"
       effect="bspline" />
    <inkscape:path-effect
       effect="bspline"
       id="path-effect5548"
       is_visible="true"
       weight="33.333333"
       steps="2"
       helper_size="0"
       apply_no_weight="true"
       apply_with_weight="true"
       only_selected="false" />
    <inkscape:path-effect
       effect="bspline"
       id="path-effect5804"
       is_visible="true"
       weight="33.333333"
       steps="2"
       helper_size="0"
       apply_no_weight="true"
       apply_with_weight="true"
       only_selected="false" />
    <inkscape:path-effect
       effect="bspline"
       id="path-effect5801"
       is_visible="true"
       weight="33.333333"
       steps="2"
       helper_size="0"
       apply_no_weight="true"
       apply_with_weight="true"
       only_selected="false" />
    <inkscape:path-effect
       effect="bspline"
       id="path-effect5797"
       is_visible="true"
       weight="33.333333"
       steps="2"
       helper_size="0"
       apply_no_weight="true"
       apply_with_weight="true"
       only_selected="false" />
    <inkscape:path-effect
       only_selected="false"
       apply_with_weight="true"
       apply_no_weight="true"
       helper_size="0"
       steps="2"
       weight="33.333333"
       is_visible="true"
       id="path-effect5794"
       effect="bspline" />
    <inkscape:path-effect
       effect="bspline"
       id="path-effect5705"
       is_visible="true"
       weight="33.333333"
       steps="2"
       helper_size="0"
       apply_no_weight="true"
       apply_with_weight="true"
       only_selected="false" />
    <inkscape:path-effect
       effect="bspline"
       id="path-effect5702"
       is_visible="true"
       weight="33.333333"
       steps="2"
       helper_size="0"
       apply_no_weight="true"
       apply_with_weight="true"
       only_selected="false" />
    <inkscape:path-effect
       effect="bspline"
       id="path-effect5698"
       is_visible="true"
       weight="33.333333"
       steps="2"
       helper_size="0"
       apply_no_weight="true"
       apply_with_weight="true"
       only_selected="false" />
    <inkscape:path-effect
       only_selected="false"
       apply_with_weight="true"
       apply_no_weight="true"
       helper_size="0"
       steps="2"
       weight="33.333333"
       is_visible="true"
       id="path-effect5695"
       effect="bspline" />
    <inkscape:path-effect
       only_selected="false"
       apply_with_weight="true"
       apply_no_weight="true"
       helper_size="0"
       steps="2"
       weight="33.333333"
       is_visible="true"
       id="path-effect5551"
       effect="bspline" />
    <inkscape:path-effect
       only_selected="false"
       apply_with_weight="true"
       apply_no_weight="true"
       helper_size="0"
       steps="2"
       weight="33.333333"
       is_visible="true"
       id="path-effect5547"
       effect="bspline" />
    <inkscape:path-effect
       only_selected="false"
       apply_with_weight="true"
       apply_no_weight="true"
       helper_size="0"
       steps="2"
       weight="33.333333"
       is_visible="true"
       id="path-effect5544"
       effect="bspline" />
    <inkscape:path-effect
       effect="bspline"
       id="path-effect5540"
       is_visible="true"
       weight="33.333333"
       steps="2"
       helper_size="0"
       apply_no_weight="true"
       apply_with_weight="true"
       only_selected="false" />
    <inkscape:path-effect
       only_selected="false"
       apply_with_weight="true"
       apply_no_weight="true"
       helper_size="0"
       steps="2"
       weight="33.333333"
       is_visible="true"
       id="path-effect5532"
       effect="bspline" />
    <inkscape:path-effect
       only_selected="false"
       apply_with_weight="true"
       apply_no_weight="true"
       helper_size="0"
       steps="2"
       weight="33.333333"
       is_visible="true"
       id="path-effect5528"
       effect="bspline" />
    <inkscape:path-effect
       only_selected="false"
       apply_with_weight="true"
       apply_no_weight="true"
       helper_size="0"
       steps="2"
       weight="33.333333"
       is_visible="true"
       id="path-effect5525"
       effect="bspline" />
    <inkscape:path-effect
       effect="bspline"
       id="path-effect5521"
       is_visible="true"
       weight="33.333333"
       steps="2"
       helper_size="0"
       apply_no_weight="true"
       apply_with_weight="true"
       only_selected="false" />
    <inkscape:path-effect
       only_selected="false"
       apply_with_weight="true"
       apply_no_weight="true"
       helper_size="0"
       steps="2"
       weight="33.333333"
       is_visible="true"
       id="path-effect5500"
       effect="bspline" />
    <inkscape:path-effect
       only_selected="false"
       apply_with_weight="true"
       apply_no_weight="true"
       helper_size="0"
       steps="2"
       weight="33.333333"
       is_visible="true"
       id="path-effect5496"
       effect="bspline" />
    <inkscape:path-effect
       only_selected="false"
       apply_with_weight="true"
       apply_no_weight="true"
       helper_size="0"
       steps="2"
       weight="33.333333"
       is_visible="true"
       id="path-effect5493"
       effect="bspline" />
    <inkscape:path-effect
       effect="bspline"
       id="path-effect5489"
       is_visible="true"
       weight="33.333333"
       steps="2"
       helper_size="0"
       apply_no_weight="true"
       apply_with_weight="true"
       only_selected="false" />
    <inkscape:path-effect
       only_selected="false"
       apply_with_weight="true"
       apply_no_weight="true"
       helper_size="0"
       steps="2"
       weight="33.333333"
       is_visible="true"
       id="path-effect5275"
       effect="bspline" />
    <inkscape:path-effect
       only_selected="false"
       apply_with_weight="true"
       apply_no_weight="true"
       helper_size="0"
       steps="2"
       weight="33.333333"
       is_visible="true"
       id="path-effect5271"
       effect="bspline" />
    <inkscape:path-effect
       effect="bspline"
       id="path-effect5268"
       is_visible="true"
       weight="33.333333"
       steps="2"
       helper_size="0"
       apply_no_weight="true"
       apply_with_weight="true"
       only_selected="false" />
    <inkscape:path-effect
       only_selected="false"
       apply_with_weight="true"
       apply_no_weight="true"
       helper_size="0"
       steps="2"
       weight="33.333333"
       is_visible="true"
       id="path-effect5260"
       effect="bspline" />
    <inkscape:path-effect
       only_selected="false"
       apply_with_weight="true"
       apply_no_weight="true"
       helper_size="0"
       steps="2"
       weight="33.333333"
       is_visible="true"
       id="path-effect5237"
       effect="bspline" />
    <inkscape:path-effect
       only_selected="false"
       apply_with_weight="true"
       apply_no_weight="true"
       helper_size="0"
       steps="2"
       weight="33.333333"
       is_visible="true"
       id="path-effect5233"
       effect="bspline" />
    <inkscape:path-effect
       only_selected="false"
       apply_with_weight="true"
       apply_no_weight="true"
       helper_size="0"
       steps="2"
       weight="33.333333"
       is_visible="true"
       id="path-effect5230"
       effect="bspline" />
    <inkscape:path-effect
       effect="bspline"
       id="path-effect5226"
       is_visible="true"
       weight="33.333333"
       steps="2"
       helper_size="0"
       apply_no_weight="true"
       apply_with_weight="true"
       only_selected="false" />
    <inkscape:path-effect
       only_selected="false"
       apply_with_weight="true"
       apply_no_weight="true"
       helper_size="0"
       steps="2"
       weight="33.333333"
       is_visible="true"
       id="path-effect5129"
       effect="bspline" />
    <inkscape:path-effect
       only_selected="false"
       apply_with_weight="true"
       apply_no_weight="true"
       helper_size="0"
       steps="2"
       weight="33.333333"
       is_visible="true"
       id="path-effect5125"
       effect="bspline" />
    <inkscape:path-effect
       only_selected="false"
       apply_with_weight="true"
       apply_no_weight="true"
       helper_size="0"
       steps="2"
       weight="33.333333"
       is_visible="true"
       id="path-effect5122"
       effect="bspline" />
    <inkscape:path-effect
       effect="bspline"
       id="path-effect5118"
       is_visible="true"
       weight="33.333333"
       steps="2"
       helper_size="0"
       apply_no_weight="true"
       apply_with_weight="true"
       only_selected="false" />
    <inkscape:path-effect
       only_selected="false"
       apply_with_weight="true"
       apply_no_weight="true"
       helper_size="0"
       steps="2"
       weight="33.333333"
       is_visible="true"
       id="path-effect6680"
       effect="bspline" />
    <inkscape:path-effect
       only_selected="false"
       apply_with_weight="true"
       apply_no_weight="true"
       helper_size="0"
       steps="2"
       weight="33.333333"
       is_visible="true"
       id="path-effect6676"
       effect="bspline" />
    <inkscape:path-effect
       only_selected="false"
       apply_with_weight="true"
       apply_no_weight="true"
       helper_size="0"
       steps="2"
       weight="33.333333"
       is_visible="true"
       id="path-effect6673"
       effect="bspline" />
    <inkscape:path-effect
       effect="bspline"
       id="path-effect6669"
       is_visible="true"
       weight="33.333333"
       steps="2"
       helper_size="0"
       apply_no_weight="true"
       apply_with_weight="true"
       only_selected="false" />
    <inkscape:path-effect
       only_selected="false"
       apply_with_weight="true"
       apply_no_weight="true"
       helper_size="0"
       steps="2"
       weight="33.333333"
       is_visible="true"
       id="path-effect6576"
       effect="bspline" />
    <inkscape:path-effect
       effect="bspline"
       id="path-effect6572"
       is_visible="true"
       weight="33.333333"
       steps="2"
       helper_size="0"
       apply_no_weight="true"
       apply_with_weight="true"
       only_selected="false" />
    <inkscape:path-effect
       effect="bspline"
       id="path-effect6544"
       is_visible="true"
       weight="33.333333"
       steps="2"
       helper_size="0"
       apply_no_weight="true"
       apply_with_weight="true"
       only_selected="false" />
    <inkscape:path-effect
       effect="bspline"
       id="path-effect6532"
       is_visible="true"
       weight="33.333333"
       steps="2"
       helper_size="0"
       apply_no_weight="true"
       apply_with_weight="true"
       only_selected="false" />
    <inkscape:path-effect
       only_selected="false"
       apply_with_weight="true"
       apply_no_weight="true"
       helper_size="0"
       steps="2"
       weight="33.333333"
       is_visible="true"
       id="path-effect6514"
       effect="bspline" />
    <inkscape:path-effect
       only_selected="false"
       apply_with_weight="true"
       apply_no_weight="true"
       helper_size="0"
       steps="2"
       weight="33.333333"
       is_visible="true"
       id="path-effect6510"
       effect="bspline" />
    <inkscape:path-effect
       only_selected="false"
       apply_with_weight="true"
       apply_no_weight="true"
       helper_size="0"
       steps="2"
       weight="33.333333"
       is_visible="true"
       id="path-effect6507"
       effect="bspline" />
    <inkscape:path-effect
       effect="bspline"
       id="path-effect6503"
       is_visible="true"
       weight="33.333333"
       steps="2"
       helper_size="0"
       apply_no_weight="true"
       apply_with_weight="true"
       only_selected="false" />
    <inkscape:path-effect
       effect="bspline"
       id="path-effect6428"
       is_visible="true"
       weight="33.333333"
       steps="2"
       helper_size="0"
       apply_no_weight="true"
       apply_with_weight="true"
       only_selected="false" />
    <inkscape:path-effect
       effect="bspline"
       id="path-effect6422"
       is_visible="true"
       weight="33.333333"
       steps="2"
       helper_size="0"
       apply_no_weight="true"
       apply_with_weight="true"
       only_selected="false" />
    <inkscape:path-effect
       effect="bspline"
       id="path-effect6416"
       is_visible="true"
       weight="33.333333"
       steps="2"
       helper_size="0"
       apply_no_weight="true"
       apply_with_weight="true"
       only_selected="false" />
    <inkscape:path-effect
       effect="bspline"
       id="path-effect6412"
       is_visible="true"
       weight="33.333333"
       steps="2"
       helper_size="0"
       apply_no_weight="true"
       apply_with_weight="true"
       only_selected="false" />
    <inkscape:path-effect
       effect="bspline"
       id="path-effect6356"
       is_visible="true"
       weight="33.333333"
       steps="2"
       helper_size="0"
       apply_no_weight="true"
       apply_with_weight="true"
       only_selected="false" />
    <inkscape:path-effect
       only_selected="false"
       apply_with_weight="true"
       apply_no_weight="true"
       helper_size="0"
       steps="2"
       weight="33.333333"
       is_visible="true"
       id="path-effect6352"
       effect="bspline" />
    <inkscape:path-effect
       effect="bspline"
       id="path-effect6348"
       is_visible="true"
       weight="33.333333"
       steps="2"
       helper_size="0"
       apply_no_weight="true"
       apply_with_weight="true"
       only_selected="false" />
    <linearGradient
       id="linearGradient6174"
       osb:paint="solid">
      <stop
         style="stop-color:#bf3100;stop-opacity:1;"
         offset="0"
         id="stop6172" />
    </linearGradient>
    <inkscape:path-effect
       effect="bspline"
       id="path-effect4674"
       is_visible="true"
       weight="33.333333"
       steps="2"
       helper_size="0"
       apply_no_weight="true"
       apply_with_weight="true"
       only_selected="false" />
    <inkscape:path-effect
       effect="bspline"
       id="path-effect4658"
       is_visible="true"
       weight="33.333333"
       steps="2"
       helper_size="0"
       apply_no_weight="true"
       apply_with_weight="true"
       only_selected="false" />
    <inkscape:path-effect
       effect="bspline"
       id="path-effect4654"
       is_visible="true"
       weight="33.333333"
       steps="2"
       helper_size="0"
       apply_no_weight="true"
       apply_with_weight="true"
       only_selected="false" />
    <inkscape:path-effect
       effect="spiro"
       id="path-effect4607"
       is_visible="true" />
    <inkscape:path-effect
       is_visible="true"
       id="path-effect4603"
       effect="spiro" />
    <inkscape:path-effect
       is_visible="true"
       id="path-effect4599"
       effect="spiro" />
    <inkscape:path-effect
       effect="spiro"
       id="path-effect4595"
       is_visible="true" />
    <marker
       inkscape:stockid="DiamondS"
       orient="auto"
       refY="0"
       refX="0"
       id="DiamondS"
       style="overflow:visible"
       inkscape:isstock="true">
      <path
         id="path4587"
         d="M 0,-7.0710768 -7.0710894,0 0,7.0710589 7.0710462,0 Z"
         style="fill:#16502d;fill-opacity:1;fill-rule:evenodd;stroke:#ffcc00;stroke-width:1.00000003pt;stroke-opacity:1"
         transform="scale(0.2)"
         inkscape:connector-curvature="0" />
    </marker>
    <marker
       style="overflow:visible"
       id="DotS"
       refX="0"
       refY="0"
       orient="auto">
      <path
         transform="matrix(0.2,0,0,0.2,1.48,0.2)"
         style="fill:#16502d;fill-opacity:1;fill-rule:evenodd;stroke:#ffcc00;stroke-width:1.00000003pt;stroke-opacity:1"
         d="m -2.5,-1 c 0,2.76 -2.24,5 -5,5 -2.76,0 -5,-2.24 -5,-5 0,-2.76 2.24,-5 5,-5 2.76,0 5,2.24 5,5 z"
         id="path4564"
         inkscape:connector-curvature="0" />
    </marker>
    <marker
       style="overflow:visible"
       id="Arrow1Sstart"
       refX="0"
       refY="0"
       orient="auto">
      <path
         transform="matrix(0.2,0,0,0.2,1.2,0)"
         style="fill:#16502d;fill-opacity:1;fill-rule:evenodd;stroke:#ffcc00;stroke-width:1.00000003pt;stroke-opacity:1"
         d="M 0,0 5,-5 -12.5,0 5,5 Z"
         id="path4509"
         inkscape:connector-curvature="0" />
    </marker>
    <clipPath
       id="clipPath4857"
       clipPathUnits="userSpaceOnUse">
      <path
         inkscape:connector-curvature="0"
         id="path4855"
         d="M 0,0 H 249 V 259 H 0 Z" />
    </clipPath>
    <clipPath
       id="clipPath4873"
       clipPathUnits="userSpaceOnUse">
      <path
         inkscape:connector-curvature="0"
         id="path4871"
         d="M 0,0 H 249 V 259 H 0 Z" />
    </clipPath>
    <clipPath
       id="clipPath4889"
       clipPathUnits="userSpaceOnUse">
      <path
         inkscape:connector-curvature="0"
         id="path4887"
         d="M 0,0 H 249 V 259 H 0 Z" />
    </clipPath>
    <clipPath
       id="clipPath4905"
       clipPathUnits="userSpaceOnUse">
      <path
         inkscape:connector-curvature="0"
         id="path4903"
         d="M 0,0 H 249 V 259 H 0 Z" />
    </clipPath>
    <clipPath
       id="clipPath4921"
       clipPathUnits="userSpaceOnUse">
      <path
         inkscape:connector-curvature="0"
         id="path4919"
         d="M 0,0 H 249 V 259 H 0 Z" />
    </clipPath>
    <clipPath
       clipPathUnits="userSpaceOnUse"
       id="clipPath5880">
      <rect
         style="opacity:1;fill:none;fill-opacity:1;fill-rule:nonzero;stroke:#000000;stroke-width:0.02645833;stroke-linecap:round;stroke-linejoin:round;stroke-miterlimit:4;stroke-dasharray:none;stroke-dashoffset:0;stroke-opacity:1;paint-order:normal"
         id="rect5882"
         width="2.6458333"
         height="3.4041028"
         x="10.442775"
         y="-7.1437497" />
    </clipPath>
    <clipPath
       clipPathUnits="userSpaceOnUse"
       id="clipPath5886">
      <rect
         y="-10.574311"
         x="13.115067"
         height="3.4041028"
         width="2.6458333"
         id="rect5888"
         style="opacity:1;fill:none;fill-opacity:1;fill-rule:nonzero;stroke:#000000;stroke-width:0.02645833;stroke-linecap:round;stroke-linejoin:round;stroke-miterlimit:4;stroke-dasharray:none;stroke-dashoffset:0;stroke-opacity:1;paint-order:normal" />
    </clipPath>
    <clipPath
       clipPathUnits="userSpaceOnUse"
       id="clipPath5890">
      <rect
         style="opacity:1;fill:none;fill-opacity:1;fill-rule:nonzero;stroke:#000000;stroke-width:0.02645833;stroke-linecap:round;stroke-linejoin:round;stroke-miterlimit:4;stroke-dasharray:none;stroke-dashoffset:0;stroke-opacity:1;paint-order:normal"
         id="rect5892"
         width="2.6458333"
         height="3.4041028"
         x="15.345835"
         y="-15.839519" />
    </clipPath>
  </defs>
  <metadata
     id="metadata5">
    <rdf:RDF>
      <cc:Work
         rdf:about="">
        <dc:format>image/svg+xml</dc:format>
        <dc:type
           rdf:resource="http://purl.org/dc/dcmitype/StillImage" />
        <dc:title></dc:title>
      </cc:Work>
    </rdf:RDF>
  </metadata>
  <g
     id="g4712"
     transform="translate(3.9687501,-8.135938)">
    <g
       id="g4673">
      <rect
         y="8.8900003"
         x="-3.7438543"
         height="1.5875"
         width="2.6458333"
         id="rect5894"
         style="opacity:1;fill:#f2f2f2;fill-opacity:1;fill-rule:nonzero;stroke:#454837;stroke-width:0.0396875;stroke-linecap:square;stroke-linejoin:round;stroke-miterlimit:4;stroke-dasharray:none;stroke-dashoffset:0;stroke-opacity:1;paint-order:normal" />
    </g>
    <text
       id="text23025"
       y="9.6390963"
       x="-3.5150335"
       style="font-style:normal;font-variant:normal;font-weight:normal;font-stretch:normal;font-size:0.17649873px;line-height:1.25;font-family:'URW Chancery L';-inkscape-font-specification:'URW Chancery L';letter-spacing:0px;word-spacing:0px;fill:#00112b;fill-opacity:1;stroke:none;stroke-width:0.06618702"
       xml:space="preserve"><tspan
         style="fill:#00112b;stroke-width:0.06618702"
         y="9.6390963"
         x="-3.5150335"
         id="tspan23023"
         sodipodi:role="line">Nathan Dupont</tspan></text>
    <text
       id="text23029"
       y="9.7820807"
       x="-3.4198794"
       style="font-style:normal;font-variant:normal;font-weight:normal;font-stretch:normal;font-size:0.17649873px;line-height:1.25;font-family:'URW Chancery L';-inkscape-font-specification:'URW Chancery L';letter-spacing:0px;word-spacing:0px;fill:#00112b;fill-opacity:1;stroke:none;stroke-width:0.06618702"
       xml:space="preserve"><tspan
         style="fill:#00112b;stroke-width:0.06618702"
         y="9.7820807"
         x="-3.4198794"
         id="tspan23027"
         sodipodi:role="line">LCAR-IRSAMC</tspan></text>
    <text
       id="text23033"
       y="9.9115305"
       x="-3.3910334"
       style="font-style:normal;font-variant:normal;font-weight:normal;font-stretch:normal;font-size:0.17649873px;line-height:1.25;font-family:'URW Chancery L';-inkscape-font-specification:'URW Chancery L';letter-spacing:0px;word-spacing:0px;fill:#00112b;fill-opacity:1;stroke:none;stroke-width:0.06618702"
       xml:space="preserve"><tspan
         id="tspan23037"
         style="fill:#00112b;stroke-width:0.06618702"
         y="9.9115305"
         x="-3.3910334"
         sodipodi:role="line">118 route de Narbone,</tspan><tspan
         id="tspan23035"
         style="fill:#00112b;stroke-width:0.06618702"
         y="10.132154"
         x="-3.3910334"
         sodipodi:role="line" /></text>
    <text
       id="text23043"
       y="10.045739"
       x="-2.8377364"
       style="font-style:normal;font-variant:normal;font-weight:normal;font-stretch:normal;font-size:0.17649873px;line-height:1.25;font-family:'URW Chancery L';-inkscape-font-specification:'URW Chancery L';letter-spacing:0px;word-spacing:0px;fill:#00112b;fill-opacity:1;stroke:none;stroke-width:0.06618702"
       xml:space="preserve"><tspan
         style="fill:#00112b;stroke-width:0.06618702"
         y="10.045739"
         x="-2.8377364"
         id="tspan23041"
         sodipodi:role="line">Toulouse</tspan></text>
    <g
       transform="translate(0.01245333,1.5237663)"
       id="g6169">
      <path
         d="m -1.6199465,7.4439145 c 5.43e-5,3.282e-4 9.48e-5,6.624e-4 9.48e-5,0.001 0,0.00322 -0.00248,0.00584 -0.00562,0.00611 -1.91e-4,1.96e-5 -3.85e-4,3.02e-5 -5.81e-4,3.17e-5 -1.96e-4,-1.5e-6 -3.899e-4,-1.21e-5 -5.812e-4,-3.17e-5 -1.862e-4,-1.56e-5 -3.688e-4,-4.62e-5 -5.499e-4,-7.87e-5 l 1e-7,0.00628 c 3.81e-4,-7.31e-5 7.756e-4,-1.094e-4 0.00118,-1.094e-4 0.0034,0 0.00616,0.00275 0.00616,0.00614 0,0.0034 -0.00276,0.00616 -0.00616,0.00616 -4.023e-4,0 -7.969e-4,-3.57e-5 -0.00118,-1.094e-4 v 0.00627 c 3.81e-4,-7.39e-5 7.756e-4,-1.094e-4 0.00118,-1.094e-4 0.0034,-5e-7 0.00616,0.00276 0.00616,0.00616 0,0.0034 -0.00276,0.00614 -0.00616,0.00614 -4.024e-4,0 -7.97e-4,-3.62e-5 -0.00118,-1.093e-4 v 0.00628 c 3.811e-4,-7.52e-5 7.756e-4,-1.107e-4 0.00118,-1.107e-4 0.0034,0 0.00616,0.00274 0.00616,0.00614 0,0.00339 -0.00276,0.00616 -0.00616,0.00616 -4.024e-4,0 -7.969e-4,-3.52e-5 -0.00118,-1.107e-4 v 0.00627 c 3.811e-4,-7.52e-5 7.757e-4,-1.107e-4 0.00118,-1.107e-4 0.0034,0 0.00616,0.00276 0.00616,0.00616 0,0.00339 -0.00276,0.00616 -0.00616,0.00616 -4.023e-4,0 -7.969e-4,-3.52e-5 -0.00118,-1.107e-4 l 1e-7,0.00627 c 3.81e-4,-7.52e-5 7.756e-4,-1.108e-4 0.00118,-1.108e-4 0.0034,0 0.00616,0.00274 0.00616,0.00614 0,0.00339 -0.00276,0.00616 -0.00616,0.00616 -4.024e-4,0 -7.97e-4,-3.52e-5 -0.00118,-1.108e-4 v 0.00627 c 3.81e-4,-7.52e-5 7.756e-4,-1.108e-4 0.00118,-1.108e-4 0.0034,0 0.00616,0.00276 0.00616,0.00616 0,0.0034 -0.00276,0.00616 -0.00616,0.00616 -4.024e-4,0 -7.97e-4,-3.52e-5 -0.00118,-1.108e-4 v 0.00627 c 3.811e-4,-7.53e-5 7.756e-4,-1.108e-4 0.00118,-1.108e-4 0.0034,0 0.00616,0.00276 0.00616,0.00616 0,0.0034 -0.00276,0.00614 -0.00616,0.00614 -4.024e-4,0 -7.969e-4,-3.52e-5 -0.00118,-1.108e-4 v 0.00628 c 3.811e-4,-7.53e-5 7.757e-4,-1.108e-4 0.00118,-1.108e-4 0.0034,0 0.00616,0.00275 0.00616,0.00614 0,0.0034 -0.00276,0.00616 -0.00616,0.00616 -4.023e-4,0 -7.969e-4,-3.52e-5 -0.00118,-1.108e-4 l 1e-7,0.00627 c 3.81e-4,-7.53e-5 7.756e-4,-1.108e-4 0.00118,-1.108e-4 0.0034,0 0.00616,0.00276 0.00616,0.00616 0,0.0034 -0.00276,0.00614 -0.00616,0.00614 -4.024e-4,0 -7.97e-4,-3.52e-5 -0.00118,-1.108e-4 v 0.00628 c 3.81e-4,-7.03e-5 7.756e-4,-1.107e-4 0.00118,-1.107e-4 0.00308,0 0.00563,0.00226 0.00608,0.00522 h -1.61e-5 c 5.02e-5,3.015e-4 8.92e-5,6.091e-4 9.47e-5,9.249e-4 5e-7,2.52e-5 0,5.53e-5 0,8.01e-5 -2.5e-6,1.86e-4 -1.3e-5,3.671e-4 -3.11e-5,5.476e-4 -10e-7,10e-6 1e-6,2.01e-5 0,3.52e-5 -3.302e-4,0.00309 -0.00295,0.00549 -0.00613,0.00549 -4.023e-4,0 -7.969e-4,-3.52e-5 -0.00118,-1.108e-4 l 1e-7,6.53e-5 v 0.0062 8.01e-5 c 3.81e-4,-7.52e-5 7.756e-4,-1.108e-4 0.00118,-1.108e-4 0.00317,0 0.00579,0.00237 0.00613,0.00545 1.5e-6,2.01e-5 -2e-6,3.52e-5 0,5.03e-5 1.76e-5,1.908e-4 3.12e-5,3.814e-4 3.12e-5,5.783e-4 v 6.53e-5 c -2.1e-6,1.909e-4 -1.26e-5,3.774e-4 -3.12e-5,5.619e-4 -2.11e-5,2.113e-4 -5.33e-5,4.122e-4 -9.48e-5,6.132e-4 -5.748e-4,0.0028 -0.00306,0.00492 -0.00603,0.00492 -4.024e-4,0 -7.969e-4,-3.52e-5 -0.00118,-1.108e-4 v 6.54e-5 0.0062 6.53e-5 c 3.811e-4,-7.52e-5 7.757e-4,-1.107e-4 0.00118,-1.107e-4 0.00317,0 0.00579,0.00239 0.00613,0.00547 1.6e-6,1.5e-5 -2e-6,3.01e-5 0,4.52e-5 1.76e-5,1.909e-4 3.12e-5,3.814e-4 3.12e-5,5.783e-4 v 6.53e-5 c -2e-6,1.909e-4 -1.26e-5,3.774e-4 -3.12e-5,5.681e-4 -2.11e-5,2.071e-4 -5.32e-5,4.122e-4 -9.47e-5,6.091e-4 -5.748e-4,0.0028 -0.00306,0.0049 -0.00603,0.0049 -4.024e-4,0 -7.97e-4,-3.52e-5 -0.00118,-1.108e-4 v 6.54e-5 0.00622 6.53e-5 c 3.81e-4,-7.52e-5 7.756e-4,-1.107e-4 0.00118,-1.107e-4 0.00317,0 0.00579,0.00237 0.00613,0.00545 1.5e-6,1.5e-5 -2e-6,3.01e-5 0,4.52e-5 1.76e-5,1.909e-4 3.12e-5,3.815e-4 3.12e-5,5.783e-4 v 6.54e-5 c -2e-6,1.909e-4 -1.26e-5,3.773e-4 -3.12e-5,5.681e-4 -2.11e-5,2.071e-4 -5.33e-5,4.122e-4 -9.47e-5,6.091e-4 -5.749e-4,0.0028 -0.00306,0.00492 -0.00603,0.00492 -4.023e-4,0 -7.969e-4,-4.03e-5 -0.00118,-1.108e-4 l 1e-7,6.03e-5 v 0.0062 6.54e-5 c 3.81e-4,-7.53e-5 7.756e-4,-1.108e-4 0.00118,-1.108e-4 0.00317,0 0.00579,0.00239 0.00613,0.00547 1.5e-6,1.5e-5 -2e-6,3.01e-5 0,4.52e-5 1.76e-5,1.909e-4 3.12e-5,3.876e-4 3.12e-5,5.824e-4 v 6.03e-5 c -2.1e-6,1.91e-4 -1.26e-5,3.815e-4 -3.12e-5,5.681e-4 -2.11e-5,2.071e-4 -5.33e-5,4.122e-4 -9.48e-5,6.091e-4 -5.748e-4,0.0028 -0.00306,0.0049 -0.00603,0.00491 -4.024e-4,-5e-6 -7.969e-4,-4.02e-5 -0.00118,-1.108e-4 v 7.53e-5 0.00621 6.03e-5 c 3.811e-4,-7.53e-5 7.757e-4,-1.108e-4 0.00118,-1.108e-4 0.00317,0 0.00579,0.00238 0.00613,0.00545 1.5e-6,1.51e-5 -2e-6,3.01e-5 0,4.52e-5 1.76e-5,1.909e-4 3.11e-5,3.876e-4 3.11e-5,5.824e-4 v 6.04e-5 c -2e-6,1.908e-4 -1.25e-5,3.814e-4 -3.11e-5,5.68e-4 -2.11e-5,2.072e-4 -5.33e-5,4.122e-4 -9.48e-5,6.091e-4 -5.748e-4,0.0028 -0.00306,0.00492 -0.00603,0.00492 -4.024e-4,0 -7.97e-4,-4.02e-5 -0.00118,-1.107e-4 v 6.03e-5 0.00621 6.04e-5 c 3.811e-4,-7.53e-5 7.756e-4,-1.108e-4 0.00118,-1.108e-4 0.00317,0 0.00579,0.00239 0.00613,0.00547 1.5e-6,1.5e-5 -2e-6,3.01e-5 0,4.52e-5 1.76e-5,1.909e-4 3.12e-5,3.876e-4 3.12e-5,5.824e-4 v 6.03e-5 c -2e-6,1.91e-4 -1.26e-5,3.815e-4 -3.12e-5,5.681e-4 -2.11e-5,2.072e-4 -5.32e-5,4.122e-4 -9.47e-5,6.132e-4 -5.748e-4,0.0028 -0.00306,0.00492 -0.00603,0.00492 -4.024e-4,0 -7.97e-4,-3.52e-5 -0.00118,-1.108e-4 v 6.03e-5 0.00621 6.03e-5 c 3.81e-4,-7.03e-5 7.756e-4,-1.108e-4 0.00118,-1.108e-4 0.00318,0 0.00581,0.00241 0.00613,0.00551 1.71e-5,1.86e-4 3.12e-5,3.774e-4 3.12e-5,5.681e-4 5e-7,2.51e-5 0,5.02e-5 0,7.52e-5 -2.5e-6,1.861e-4 -1.31e-5,3.712e-4 -3.12e-5,5.538e-4 -3.162e-4,0.0031 -0.00294,0.00553 -0.00613,0.00553 -4.024e-4,0 -7.97e-4,-3.51e-5 -0.00118,-1.107e-4 v 6.03e-5 0.00628 0.00103 c 3.515e-4,-6.53e-5 7.141e-4,-9.54e-5 0.00108,-9.54e-5 0.00339,0 0.00615,0.00275 0.00616,0.00614 5e-7,5e-6 0,1.01e-5 0,1.51e-5 -5.052e-4,0.00289 -0.00303,0.0051 -0.00606,0.0051 -4.024e-4,0 -7.97e-4,-3.52e-5 -0.00118,-1.059e-4 v 0.00626 c 3.811e-4,-7.03e-5 7.756e-4,-1.108e-4 0.00118,-1.108e-4 0.0034,5.1e-6 0.00616,0.00276 0.00616,0.00616 0,0.00339 -0.00276,0.00614 -0.00616,0.00614 -4.024e-4,0 -7.969e-4,-3.52e-5 -0.00118,-1.052e-4 v 0.00628 c 3.811e-4,-7.53e-5 7.757e-4,-1.108e-4 0.00118,-1.108e-4 0.0034,0 0.00616,0.00274 0.00616,0.00614 0,0.00339 -0.00276,0.00616 -0.00616,0.00615 -4.023e-4,5e-6 -7.969e-4,-3.52e-5 -0.00118,-1.059e-4 l 10e-8,0.00627 c 3.81e-4,-7.52e-5 7.756e-4,-1.107e-4 0.00118,-1.107e-4 0.0034,0 0.00616,0.00276 0.00616,0.00616 0,0.00339 -0.00276,0.00616 -0.00616,0.00616 -4.024e-4,0 -7.97e-4,-4.02e-5 -0.00118,-1.107e-4 v 0.00627 c 3.81e-4,-7.52e-5 7.756e-4,-1.108e-4 0.00118,-1.108e-4 0.0034,0 0.00616,0.00276 0.00616,0.00616 0,0.00339 -0.00276,0.00614 -0.00616,0.00614 -4.024e-4,0 -7.97e-4,-4.02e-5 -0.00118,-1.108e-4 v 0.00628 c 3.811e-4,-7.53e-5 7.756e-4,-1.108e-4 0.00118,-1.108e-4 0.0034,0 0.00616,0.00274 0.00616,0.00614 0,0.00339 -0.00276,0.00616 -0.00616,0.00616 -4.024e-4,0 -7.969e-4,-3.52e-5 -0.00118,-1.108e-4 v 0.00627 c 3.811e-4,-7.53e-5 7.757e-4,-1.108e-4 0.00118,-1.108e-4 0.0034,0 0.00616,0.00276 0.00616,0.00616 0,0.00339 -0.00276,0.00614 -0.00616,0.00614 -4.023e-4,0 -7.969e-4,-3.52e-5 -0.00118,-1.108e-4 l 1e-7,0.00628 c 3.81e-4,-7.52e-5 7.756e-4,-1.107e-4 0.00118,-1.107e-4 0.0034,0 0.00616,0.00274 0.00616,0.00614 0,0.00339 -0.00276,0.00616 -0.00616,0.00616 -4.024e-4,0 -7.97e-4,-3.52e-5 -0.00118,-1.108e-4 v 0.00627 c 3.81e-4,-7.53e-5 7.756e-4,-1.108e-4 0.00118,-1.108e-4 0.0034,0 0.00616,0.00276 0.00616,0.00616 0,0.0034 -0.00276,0.00616 -0.00616,0.00616 -4.024e-4,0 -7.97e-4,-3.52e-5 -0.00118,-1.108e-4 v 0.00627 c 3.811e-4,-7.53e-5 7.756e-4,-1.108e-4 0.00118,-1.108e-4 0.0034,0 0.00616,0.00274 0.00616,0.00614 0,0.0034 -0.00276,0.00613 -0.00616,0.00613 -4.024e-4,0 -7.969e-4,0 -0.00118,-9.75e-5 v 0.00739 c 3.516e-4,-5.02e-5 7.141e-4,-9.75e-5 0.00108,-9.75e-5 0.0034,0 0.00616,0.00276 0.00616,0.00618 0,5.024e-4 -6.89e-5,9.556e-4 -1.881e-4,0.00146 h 0.00642 c -1.192e-4,-5.025e-4 -1.888e-4,-9.557e-4 -1.888e-4,-0.00146 0,-0.00342 0.00276,-0.00618 0.00616,-0.00618 0.0034,0 0.00614,0.00276 0.00614,0.00618 0,5.024e-4 -6.97e-5,9.556e-4 -1.882e-4,0.00146 h 0.00644 c -1.184e-4,-5.025e-4 -1.888e-4,-9.557e-4 -1.888e-4,-0.00146 0,-0.00342 0.00275,-0.00618 0.00614,-0.00618 0.0034,0 0.00616,0.00276 0.00616,0.00618 0,5.024e-4 -6.94e-5,9.556e-4 -1.888e-4,0.00146 h 0.00642 c -1.205e-4,-5.025e-4 -1.86e-4,-9.557e-4 -1.86e-4,-0.00146 0,-0.00342 0.00276,-0.00618 0.00615,-0.00618 0.0034,0 0.00616,0.00276 0.00616,0.00618 0,5.024e-4 -7.04e-5,9.556e-4 -1.909e-4,0.00146 h 0.00642 c -1.205e-4,-5.025e-4 -1.86e-4,-9.557e-4 -1.86e-4,-0.00146 0,-0.00342 0.00276,-0.00618 0.00616,-0.00618 0.00339,0 0.00614,0.00276 0.00614,0.00618 0,5.024e-4 -7.04e-5,9.556e-4 -1.909e-4,0.00146 h 0.00642 c -1.205e-4,-5.025e-4 -1.86e-4,-9.557e-4 -1.86e-4,-0.00146 0,-0.00342 0.00276,-0.00618 0.00616,-0.00618 0.00339,0 0.00616,0.00276 0.00616,0.00618 0,5.024e-4 -7.04e-5,9.556e-4 -1.909e-4,0.00146 h 0.00642 c -1.157e-4,-5.025e-4 -1.86e-4,-9.557e-4 -1.86e-4,-0.00146 0,-0.00342 0.00276,-0.00618 0.00616,-0.00618 0.00339,0 0.00614,0.00276 0.00614,0.00618 0,5.024e-4 -7.04e-5,9.556e-4 -1.909e-4,0.00146 h 0.00644 c -1.156e-4,-5.025e-4 -1.86e-4,-9.557e-4 -1.86e-4,-0.00146 0,-0.00342 0.00274,-0.00618 0.00614,-0.00618 0.00339,0 0.00616,0.00276 0.00616,0.00618 0,5.024e-4 -7.03e-5,9.556e-4 -1.909e-4,0.00146 h 0.00642 c -1.156e-4,-5.025e-4 -1.86e-4,-9.557e-4 -1.86e-4,-0.00146 0,-0.00342 0.00276,-0.00618 0.00616,-0.00618 0.00339,0 0.00616,0.00276 0.00616,0.00618 0,5.024e-4 -7.04e-5,9.556e-4 -1.909e-4,0.00146 h 0.00643 c -1.205e-4,-5.025e-4 -1.909e-4,-9.557e-4 -1.909e-4,-0.00146 0,-0.00342 0.00274,-0.00618 0.00614,-0.00618 0.00339,0 0.00616,0.00276 0.00616,0.00618 0,5.024e-4 -7.04e-5,9.556e-4 -1.909e-4,0.00146 h 0.00643 c -1.206e-4,-5.025e-4 -1.909e-4,-9.557e-4 -1.909e-4,-0.00146 0,-0.00342 0.00276,-0.00618 0.00616,-0.00618 0.0034,0 0.00616,0.00276 0.00616,0.00618 0,5.024e-4 -7.04e-5,9.556e-4 -1.909e-4,0.00146 h 0.00643 c -1.206e-4,-5.025e-4 -1.909e-4,-9.557e-4 -1.909e-4,-0.00146 0,-0.00342 0.00276,-0.00618 0.00616,-0.00618 0.0034,0 0.00614,0.00276 0.00614,0.00618 0,5.024e-4 -7.04e-5,9.556e-4 -1.909e-4,0.00146 h 0.00644 c -1.205e-4,-5.025e-4 -1.909e-4,-9.557e-4 -1.909e-4,-0.00146 0,-0.00342 0.00275,-0.00618 0.00614,-0.00618 0.0034,0 0.00616,0.00276 0.00616,0.00618 0,5.024e-4 -7.04e-5,9.556e-4 -1.86e-4,0.00146 h 0.00642 c -1.205e-4,-5.025e-4 -1.909e-4,-9.557e-4 -1.909e-4,-0.00146 0,-0.00342 0.00276,-0.00618 0.00616,-0.00618 0.0034,0 0.00614,0.00276 0.00614,0.00618 0,5.024e-4 -7.03e-5,9.556e-4 -1.86e-4,0.00146 h 0.00644 c -1.206e-4,-5.025e-4 -1.909e-4,-9.557e-4 -1.909e-4,-0.00146 0,-0.00342 0.00275,-0.00618 0.00614,-0.00618 0.0034,0 0.00616,0.00276 0.00616,0.00618 0,5.024e-4 -7.04e-5,9.556e-4 -1.86e-4,0.00146 h 0.00642 c -1.205e-4,-5.025e-4 -1.909e-4,-9.557e-4 -1.909e-4,-0.00146 0,-0.00342 0.00276,-0.00618 0.00616,-0.00618 0.0034,0 0.00616,0.00276 0.00616,0.00618 0,5.024e-4 -6.54e-5,9.556e-4 -1.861e-4,0.00146 h 0.00642 c -1.205e-4,-5.025e-4 -1.909e-4,-9.557e-4 -1.909e-4,-0.00146 0,-0.00342 0.00276,-0.00618 0.00616,-0.00618 0.00339,0 0.00614,0.00276 0.00614,0.00618 0,5.024e-4 -7.04e-5,9.556e-4 -1.86e-4,0.00146 h 0.00642 c -1.205e-4,-5.025e-4 -1.909e-4,-9.557e-4 -1.909e-4,-0.00146 0,-0.00342 0.00276,-0.00618 0.00616,-0.00618 0.00339,0 0.00616,0.00276 0.00615,0.00618 0,5.024e-4 -6.53e-5,9.556e-4 -1.86e-4,0.00146 h 0.00642 c -1.205e-4,-5.025e-4 -1.86e-4,-9.557e-4 -1.86e-4,-0.00146 0,-0.00342 0.00276,-0.00618 0.00616,-0.00618 0.00339,0 0.00614,0.00276 0.00614,0.00618 0,5.024e-4 -6.54e-5,9.556e-4 -1.861e-4,0.00146 h 0.00743 c -1.157e-4,-5.025e-4 -1.86e-4,-9.557e-4 -1.86e-4,-0.00146 0,-0.00322 0.00246,-0.00588 0.0056,-0.00613 1.763e-4,-5.04e-5 3.568e-4,-5.04e-5 5.373e-4,-5.04e-5 h 4.52e-5 4.53e-5 c 2.013e-4,0 4.019e-4,0 5.988e-4,5.04e-5 v -0.00613 c -2.256e-4,0 -4.573e-4,5.03e-5 -6.891e-4,5.03e-5 -0.0034,0 -0.00614,-0.00278 -0.00614,-0.00617 0,-0.0034 0.00274,-0.00614 0.00614,-0.00614 2.318e-4,0 4.635e-4,2.01e-5 6.891e-4,4.52e-5 v -0.00616 c -2.256e-4,2.51e-5 -4.573e-4,5.02e-5 -6.891e-4,5.02e-5 -0.0034,0 -0.00614,-0.00275 -0.00614,-0.00614 0,-0.0034 0.00274,-0.00616 0.00614,-0.00616 2.318e-4,0 4.635e-4,2.01e-5 6.891e-4,4.53e-5 v -0.00614 c -2.256e-4,2.52e-5 -4.573e-4,5.03e-5 -6.891e-4,5.03e-5 -0.0034,0 -0.00614,-0.00276 -0.00614,-0.00616 0,-0.0034 0.00274,-0.00614 0.00614,-0.00614 2.318e-4,0 4.635e-4,2.01e-5 6.891e-4,4.52e-5 v -0.00616 c -2.256e-4,2.51e-5 -4.573e-4,5.02e-5 -6.891e-4,5.02e-5 -0.0034,0 -0.00614,-0.00275 -0.00614,-0.00614 0,-0.0034 0.00274,-0.00616 0.00614,-0.00616 2.318e-4,0 4.635e-4,2.01e-5 6.891e-4,4.52e-5 v -0.00614 c -2.256e-4,2.52e-5 -4.573e-4,5.03e-5 -6.891e-4,5.03e-5 -0.0034,0 -0.00614,-0.00276 -0.00614,-0.00616 0,-0.0034 0.00274,-0.00616 0.00614,-0.00616 2.318e-4,0 4.635e-4,2.01e-5 6.891e-4,4.53e-5 v -0.00614 c -2.256e-4,2.51e-5 -4.573e-4,5.03e-5 -6.891e-4,5.03e-5 -0.0034,0 -0.00614,-0.00275 -0.00614,-0.00614 0,-0.0034 0.00274,-0.00616 0.00614,-0.00616 2.318e-4,0 4.635e-4,2.01e-5 6.891e-4,4.52e-5 v -0.00614 c -2.256e-4,2.52e-5 -4.573e-4,5.03e-5 -6.891e-4,5.03e-5 -0.0034,0 -0.00614,-0.00276 -0.00614,-0.00616 0,-0.00339 0.00274,-0.00615 0.00614,-0.00615 2.318e-4,0 4.635e-4,2.01e-5 6.891e-4,4.53e-5 v -0.00614 c -2.256e-4,2.52e-5 -4.573e-4,4.53e-5 -6.891e-4,4.53e-5 -0.0034,0 -0.00614,-0.00276 -0.00614,-0.00616 0,-0.00339 0.00274,-0.00614 0.00614,-0.00614 2.318e-4,0 4.635e-4,2.01e-5 6.891e-4,4.52e-5 v -0.00616 c -2.256e-4,2.52e-5 -4.573e-4,4.53e-5 -6.891e-4,4.53e-5 -0.0034,0 -0.00614,-0.00274 -0.00614,-0.00614 0,-0.00339 0.00274,-0.00616 0.00614,-0.00616 2.318e-4,0 4.635e-4,2.51e-5 6.891e-4,5.02e-5 v -0.00614 c -2.256e-4,2.51e-5 -4.573e-4,4.52e-5 -6.891e-4,4.52e-5 -0.00291,0 -0.00533,-0.00204 -0.00597,-0.00474 h 1.51e-5 c -6.03e-5,-2.42e-4 -1.108e-4,-4.778e-4 -1.407e-4,-7.239e-4 -1.51e-5,-1.254e-4 -2.52e-5,-2.523e-4 -3.02e-5,-3.774e-4 -5e-6,-1.052e-4 -1.51e-5,-2.112e-4 -1.51e-5,-3.178e-4 v -3.02e-5 -3.02e-5 c 0,-1.957e-4 1.01e-5,-3.917e-4 3.02e-5,-5.824e-4 v -1.48e-5 c 4.02e-5,-3.978e-4 1.059e-4,-7.793e-4 2.215e-4,-0.00115 0,-1e-5 1e-5,-2.01e-5 1.5e-5,-3.01e-5 7.732e-4,-0.0025 0.00312,-0.00431 0.00588,-0.00431 2.317e-4,0 4.635e-4,2.51e-5 6.891e-4,5.03e-5 v -9.55e-5 -0.00606 -6.53e-5 c -2.256e-4,2.51e-5 -4.574e-4,5.02e-5 -6.891e-4,5.02e-5 -0.00319,0 -0.0058,-0.00243 -0.00611,-0.00553 -2.01e-5,-1.812e-4 -3.02e-5,-3.671e-4 -3.02e-5,-5.537e-4 v -4.5e-5 -3.02e-5 c 0,-1.909e-4 1.01e-5,-3.815e-4 3.02e-5,-5.681e-4 3.117e-4,-0.0031 0.00293,-0.00551 0.00611,-0.00551 2.317e-4,0 4.635e-4,2.51e-5 6.891e-4,5.03e-5 v -6.54e-5 -0.00608 -8.01e-5 c -2.256e-4,2.51e-5 -4.574e-4,4.52e-5 -6.891e-4,4.52e-5 -0.00298,0 -0.00545,-0.0021 -0.00602,-0.0049 -4.53e-5,-2.013e-4 -7.53e-5,-4.06e-4 -9.55e-5,-6.131e-4 -2.01e-5,-1.861e-4 -3.02e-5,-3.774e-4 -3.02e-5,-5.681e-4 v -3.09e-5 -3.01e-5 c 0,-1.958e-4 1.01e-5,-3.917e-4 3.02e-5,-5.825e-4 v -4.52e-5 c 3.363e-4,-0.00308 0.00294,-0.00547 0.00611,-0.00547 2.318e-4,0 4.635e-4,2e-5 6.891e-4,5.02e-5 v -6.53e-5 -0.00608 -6.53e-5 c -2.256e-4,2.51e-5 -4.573e-4,4.52e-5 -6.891e-4,4.52e-5 -0.00298,0 -0.00545,-0.00211 -0.00602,-0.00492 -4.53e-5,-1.957e-4 -7.53e-5,-4.019e-4 -9.55e-5,-6.132e-4 -2.01e-5,-1.86e-4 -3.01e-5,-3.712e-4 -3.01e-5,-5.619e-4 v -3.02e-5 -3.01e-5 c 0,-2.013e-4 1e-5,-3.917e-4 3.01e-5,-5.824e-4 v -5.03e-5 c 3.364e-4,-0.00308 0.00294,-0.00545 0.00611,-0.00545 2.318e-4,0 4.635e-4,2.02e-5 6.891e-4,5.03e-5 v -6.53e-5 -0.0061 -6.03e-5 c -2.256e-4,2.52e-5 -4.573e-4,4.53e-5 -6.891e-4,4.53e-5 -0.00298,0 -0.00545,-0.0021 -0.00602,-0.0049 -4.52e-5,-1.958e-4 -7.52e-5,-4.02e-4 -9.54e-5,-6.132e-4 -2.01e-5,-1.861e-4 -3.02e-5,-3.712e-4 -3.02e-5,-5.62e-4 v -3.02e-5 -3.02e-5 c 0,-2.013e-4 1.01e-5,-3.917e-4 3.02e-5,-5.824e-4 v -5.03e-5 c 3.363e-4,-0.00308 0.00294,-0.00546 0.00611,-0.00546 2.317e-4,0 4.634e-4,2.01e-5 6.89e-4,4.52e-5 v -6.32e-5 -0.00608 -6.03e-5 c -2.256e-4,2.51e-5 -4.573e-4,4.52e-5 -6.89e-4,4.52e-5 -0.00298,0 -0.00545,-0.00211 -0.00602,-0.00492 -4.52e-5,-2.014e-4 -7.52e-5,-4.02e-4 -9.54e-5,-6.132e-4 -2.01e-5,-1.861e-4 -3.02e-5,-3.712e-4 -3.02e-5,-5.64e-4 v -3.02e-5 -3.51e-5 c 0,-1.958e-4 1.01e-5,-3.876e-4 3.02e-5,-5.784e-4 v -5.02e-5 c 3.363e-4,-0.00308 0.00294,-0.00545 0.00611,-0.00545 2.317e-4,0 4.635e-4,2.01e-5 6.891e-4,4.52e-5 v -7.52e-5 -0.00608 -6.03e-5 c -2.256e-4,2.51e-5 -4.574e-4,4.52e-5 -6.891e-4,4.52e-5 -0.00298,0 -0.00545,-0.0021 -0.00602,-0.0049 -4.52e-5,-2.013e-4 -7.52e-5,-4.06e-4 -9.54e-5,-6.131e-4 -2.01e-5,-1.861e-4 -3.01e-5,-3.712e-4 -3.01e-5,-5.62e-4 v -3.02e-5 -3.52e-5 c 0,-1.958e-4 1e-5,-3.876e-4 3.01e-5,-5.783e-4 v -5.03e-5 c 3.363e-4,-0.00308 0.00294,-0.00546 0.00611,-0.00546 2.318e-4,0 4.635e-4,2.01e-5 6.891e-4,4.52e-5 v -6e-5 -0.00608 -6.03e-5 c -2.256e-4,2.52e-5 -4.573e-4,4.53e-5 -6.891e-4,4.53e-5 -0.00298,0 -0.00545,-0.00211 -0.00602,-0.00492 -4.53e-5,-2.014e-4 -7.53e-5,-4.061e-4 -9.55e-5,-6.132e-4 -2.01e-5,-1.86e-4 -3.01e-5,-3.712e-4 -3.01e-5,-5.619e-4 v -3.02e-5 -3.52e-5 c 0,-1.958e-4 1e-5,-3.876e-4 3.01e-5,-5.783e-4 v -5.03e-5 c 3.364e-4,-0.00308 0.00294,-0.00546 0.00611,-0.00546 2.318e-4,0 4.635e-4,2.01e-5 6.891e-4,4.52e-5 v -6.03e-5 -0.00614 -0.00104 c -1.958e-4,1.5e-5 -3.979e-4,3.01e-5 -5.988e-4,3.01e-5 -0.00337,0 -0.00611,-0.0027 -0.00616,-0.00606 4.635e-4,-0.00294 0.003,-0.00519 0.00607,-0.00519 2.318e-4,0 4.635e-4,2.51e-5 6.891e-4,5.02e-5 v -0.00616 c -2.256e-4,2.51e-5 -4.573e-4,4.52e-5 -6.891e-4,4.52e-5 -0.0034,0 -0.00614,-0.00274 -0.00614,-0.00614 0,-0.00339 0.00274,-0.00616 0.00614,-0.00616 2.318e-4,0 4.635e-4,2.01e-5 6.891e-4,4.52e-5 v -0.00614 c -2.256e-4,2.51e-5 -4.573e-4,4.52e-5 -6.891e-4,4.52e-5 -0.0034,0 -0.00614,-0.00276 -0.00614,-0.00616 0,-0.0034 0.00274,-0.00614 0.00614,-0.00614 2.318e-4,0 4.635e-4,2.01e-5 6.891e-4,4.53e-5 v -0.00615 c -2.256e-4,2.51e-5 -4.573e-4,4.52e-5 -6.891e-4,4.52e-5 -0.0034,0 -0.00614,-0.00274 -0.00614,-0.00614 0,-0.0034 0.00274,-0.00616 0.00614,-0.00616 2.318e-4,0 4.635e-4,2.01e-5 6.891e-4,4.53e-5 v -0.00614 c -2.256e-4,2.52e-5 -4.573e-4,4.53e-5 -6.891e-4,4.53e-5 -0.0034,0 -0.00614,-0.00276 -0.00614,-0.00616 0,-0.0034 0.00274,-0.00616 0.00614,-0.00616 2.318e-4,0 4.635e-4,2.01e-5 6.891e-4,4.53e-5 v -0.00614 c -2.256e-4,2.51e-5 -4.573e-4,5.03e-5 -6.891e-4,5.03e-5 -0.0034,0 -0.00614,-0.00276 -0.00614,-0.00616 0,-0.0034 0.00274,-0.00614 0.00614,-0.00614 2.318e-4,0 4.635e-4,2.01e-5 6.891e-4,4.52e-5 v -0.00616 c -2.256e-4,2.51e-5 -4.573e-4,5.03e-5 -6.891e-4,5.03e-5 -0.0034,0 -0.00614,-0.00275 -0.00614,-0.00614 0,-0.0034 0.00274,-0.00616 0.00614,-0.00616 2.318e-4,0 4.635e-4,2.01e-5 6.891e-4,4.52e-5 v -0.00614 c -2.256e-4,2.51e-5 -4.573e-4,5.02e-5 -6.891e-4,5.02e-5 -0.0034,0 -0.00614,-0.00276 -0.00614,-0.00616 0,-0.0034 0.00274,-0.00614 0.00614,-0.00614 2.318e-4,0 4.635e-4,2.01e-5 6.891e-4,4.52e-5 v -0.00616 c -2.256e-4,2.57e-5 -4.573e-4,4.73e-5 -6.891e-4,4.73e-5 -0.0034,0 -0.00614,-0.00275 -0.00614,-0.00614 0,-0.0034 0.00274,-0.00616 0.00614,-0.00616 2.318e-4,0 4.635e-4,2.16e-5 6.891e-4,4.73e-5 v -0.00614 c -2.256e-4,2.56e-5 -4.573e-4,4.73e-5 -6.891e-4,4.73e-5 -0.0034,0 -0.00614,-0.00276 -0.00614,-0.00616 0,-0.0034 0.00274,-0.00616 0.00614,-0.00616 2.318e-4,0 4.635e-4,2.16e-5 6.891e-4,4.73e-5 v -0.00724 c -1.958e-4,1.91e-5 -3.979e-4,3.16e-5 -5.988e-4,3.16e-5 -0.00339,0 -0.00616,-0.00275 -0.00616,-0.00614 0,-3.425e-4 4.03e-5,-6.768e-4 9.55e-5,-10e-4 h -0.00624 c 5.53e-5,3.282e-4 9.54e-5,6.624e-4 9.54e-5,10e-4 0,0.0034 -0.00276,0.00614 -0.00616,0.00614 -0.00339,0 -0.00614,-0.00275 -0.00614,-0.00614 0,-3.425e-4 4.02e-5,-6.767e-4 9.55e-5,-10e-4 l -0.00624,10e-8 c 5.53e-5,3.281e-4 9.54e-5,6.624e-4 9.54e-5,0.001 0,0.0034 -0.00276,0.00614 -0.00616,0.00614 -0.00339,0 -0.00616,-0.00275 -0.00616,-0.00614 0,-3.425e-4 4.02e-5,-6.768e-4 9.54e-5,-0.001 h -0.00624 c 5.53e-5,3.281e-4 9.55e-5,6.624e-4 9.55e-5,0.001 0,0.0034 -0.00276,0.00614 -0.00616,0.00614 -0.0034,0 -0.00614,-0.00275 -0.00614,-0.00614 0,-3.425e-4 4.03e-5,-6.768e-4 9.55e-5,-0.001 h -0.00625 c 5.53e-5,3.281e-4 9.54e-5,6.624e-4 9.54e-5,0.001 0,0.0034 -0.00274,0.00614 -0.00614,0.00614 -0.0034,0 -0.00616,-0.00275 -0.00616,-0.00614 0,-3.425e-4 4.02e-5,-6.768e-4 9.55e-5,-0.001 h -0.00624 c 5.53e-5,3.281e-4 9.54e-5,6.624e-4 9.54e-5,0.001 0,0.0034 -0.00276,0.00614 -0.00616,0.00614 -0.0034,0 -0.00616,-0.00275 -0.00616,-0.00614 0,-3.425e-4 4.03e-5,-6.768e-4 9.55e-5,-0.001 h -0.00624 c 5.53e-5,3.282e-4 9.55e-5,6.625e-4 9.55e-5,0.001 0,0.0034 -0.00275,0.00614 -0.00614,0.00614 -0.0034,0 -0.00616,-0.00275 -0.00616,-0.00614 0,-3.424e-4 4.02e-5,-6.767e-4 9.55e-5,-0.001 l -0.00624,1e-7 c 5.53e-5,3.281e-4 9.55e-5,6.624e-4 9.55e-5,0.001 0,0.0034 -0.00276,0.00614 -0.00616,0.00614 -0.0034,0 -0.00616,-0.00275 -0.00616,-0.00614 0,-3.425e-4 4.02e-5,-6.768e-4 9.54e-5,-0.001 h -0.00624 c 5.53e-5,3.281e-4 9.55e-5,6.624e-4 9.55e-5,0.001 0,0.0034 -0.00276,0.00614 -0.00616,0.00614 -0.0034,0 -0.00614,-0.00275 -0.00614,-0.00614 0,-3.425e-4 4.02e-5,-6.768e-4 9.54e-5,-0.001 h -0.00625 c 5.03e-5,3.281e-4 9.06e-5,6.624e-4 9.06e-5,0.001 5e-6,0.0034 -0.00274,0.00614 -0.00614,0.00614 -0.0034,0 -0.00616,-0.00275 -0.00616,-0.00614 0,-3.425e-4 4.02e-5,-6.768e-4 9.06e-5,-0.001 h -0.00623 c 5.53e-5,3.282e-4 9.06e-5,6.624e-4 9.06e-5,0.001 0,0.0034 -0.00276,0.00614 -0.00615,0.00614 -0.0034,0 -0.00614,-0.00275 -0.00614,-0.00614 0,-3.425e-4 4.02e-5,-6.767e-4 9.05e-5,-0.001 h -0.00625 c 5.03e-5,3.282e-4 9.06e-5,6.625e-4 9.06e-5,0.001 0,0.0034 -0.00274,0.00614 -0.00614,0.00614 -0.0034,0 -0.00616,-0.00275 -0.00616,-0.00614 5e-6,-3.424e-4 4.02e-5,-6.767e-4 9.54e-5,-0.001 l -0.00623,1e-7 c 5.02e-5,3.281e-4 9.06e-5,6.624e-4 9.06e-5,10e-4 0,0.0034 -0.00276,0.00614 -0.00616,0.00614 -0.00339,0 -0.00616,-0.00275 -0.00616,-0.00614 0,-3.425e-4 4.02e-5,-6.768e-4 9.54e-5,-10e-4 h -0.00623 c 5.02e-5,3.281e-4 9.05e-5,6.624e-4 9.05e-5,10e-4 0,0.0034 -0.00276,0.00614 -0.00616,0.00614 -0.00339,0 -0.00614,-0.00275 -0.00614,-0.00614 0,-3.425e-4 4.02e-5,-6.768e-4 9.55e-5,-10e-4 h -0.00623 c 5.03e-5,3.281e-4 9.06e-5,6.624e-4 9.06e-5,10e-4 0,0.0034 -0.00276,0.00614 -0.00616,0.00614 -0.00339,0 -0.00616,-0.00275 -0.00616,-0.00614 0,-3.425e-4 4.02e-5,-6.768e-4 9.54e-5,-10e-4 h -0.00624 c 5.53e-5,3.282e-4 9.54e-5,6.625e-4 9.54e-5,10e-4 0,0.0034 -0.00276,0.00614 -0.00616,0.00614 -0.00339,0 -0.00614,-0.00275 -0.00614,-0.00614 0,-3.424e-4 4.02e-5,-6.767e-4 9.55e-5,-10e-4 l -0.00625,1e-7 c 5.53e-5,3.281e-4 9.54e-5,6.624e-4 9.54e-5,10e-4 0,0.0034 -0.00274,0.00614 -0.00614,0.00614 -0.00339,0 -0.00616,-0.00275 -0.00616,-0.00614 0,-3.425e-4 4.02e-5,-6.768e-4 9.54e-5,-10e-4 h -0.00624 c 5.43e-5,3.281e-4 9.48e-5,6.624e-4 9.48e-5,10e-4 0,0.0034 -0.00276,0.00614 -0.00616,0.00614 -0.0034,0 -0.00616,-0.00275 -0.00616,-0.00614 0,-3.425e-4 4.02e-5,-6.768e-4 9.48e-5,-10e-4 h -0.00624 c 5.38e-5,3.282e-4 9.48e-5,6.624e-4 9.48e-5,10e-4 0,0.0034 -0.00275,0.00614 -0.00614,0.00614 -0.0034,0 -0.00616,-0.00275 -0.00616,-0.00614 0,-3.425e-4 4.02e-5,-6.767e-4 9.48e-5,-10e-4 l -0.00723,10e-8 z"
         style="fill:none;stroke:#000000;stroke-width:0.00264583;stroke-miterlimit:4;stroke-dasharray:none"
         id="path6165"
         inkscape:connector-curvature="0" />
      <rect
         x="-1.5970078"
         y="7.4709482"
         width="0.29115099"
         height="0.46353409"
         style="fill:#ff5555;stroke:#000000;stroke-width:0.00046422"
         id="rect6167" />
    </g>
    <path
       inkscape:original-d="m -2.080349,9.0864338 c 0.054029,0.017848 0.1080177,0.035749 0.1619658,0.053704 0.053948,0.017955 0.1080177,-0.035856 0.1619658,-0.053704 0.053948,-0.017848 0.1080178,0.035749 0.161966,0.053704 0.053948,0.017955 0.1080177,-0.035856 0.1619658,-0.053704"
       inkscape:path-effect="#path-effect6126"
       inkscape:connector-curvature="0"
       id="path23056"
       d="m -2.080349,9.0864338 c 0.019467,0.022662 0.045181,0.039902 0.073538,0.049305 0.028357,0.0094 0.059277,0.010941 0.088428,0.0044 0.027928,-0.00627 0.053656,-0.019605 0.079736,-0.031399 0.02608,-0.011793 0.053607,-0.022305 0.082229,-0.022305 0.028623,0 0.056149,0.010512 0.082229,0.022305 0.02608,0.011793 0.051808,0.025132 0.079736,0.031399 0.02915,0.00654 0.060071,0.005 0.088428,-0.0044 0.028357,-0.0094 0.054071,-0.026643 0.073538,-0.049304"
       style="fill:none;stroke:#003380;stroke-width:0.00932639;stroke-linecap:butt;stroke-linejoin:miter;stroke-miterlimit:4;stroke-dasharray:none;stroke-opacity:1" />
    <path
       style="fill:none;stroke:#003380;stroke-width:0.00932639;stroke-linecap:butt;stroke-linejoin:miter;stroke-miterlimit:4;stroke-dasharray:none;stroke-opacity:1"
       d="m -2.080349,9.1545834 c 0.019467,0.022662 0.045181,0.039902 0.073538,0.049305 0.028357,0.0094 0.059277,0.010941 0.088428,0.0044 0.027928,-0.00627 0.053656,-0.019605 0.079736,-0.031399 0.02608,-0.011793 0.053607,-0.022305 0.082229,-0.022305 0.028623,0 0.056149,0.010512 0.082229,0.022305 0.02608,0.011793 0.051808,0.025132 0.079736,0.031399 0.02915,0.00654 0.060071,0.005 0.088428,-0.0044 0.028357,-0.0094 0.054071,-0.026643 0.073538,-0.049304"
       id="path23058"
       inkscape:connector-curvature="0"
       inkscape:path-effect="#path-effect6123"
       inkscape:original-d="m -2.080349,9.1545834 c 0.054029,0.017848 0.1080177,0.035749 0.1619658,0.053704 0.053948,0.017955 0.1080177,-0.035856 0.1619658,-0.053704 0.053948,-0.017848 0.1080178,0.035749 0.161966,0.053704 0.053948,0.017955 0.1080177,-0.035856 0.1619658,-0.053704" />
    <path
       inkscape:original-d="m -2.080349,9.222733 c 0.054029,0.017848 0.1080177,0.035749 0.1619658,0.053704 0.053948,0.017955 0.1080177,-0.035856 0.1619658,-0.053704 0.053948,-0.017848 0.1080178,0.035749 0.161966,0.053704 0.053948,0.017955 0.1080177,-0.035856 0.1619658,-0.053704"
       inkscape:path-effect="#path-effect6120"
       inkscape:connector-curvature="0"
       id="path23060"
       d="m -2.080349,9.222733 c 0.019467,0.022662 0.045181,0.039902 0.073538,0.049305 0.028357,0.0094 0.059277,0.010941 0.088428,0.0044 0.027928,-0.00627 0.053656,-0.019605 0.079736,-0.031399 0.02608,-0.011793 0.053607,-0.022305 0.082229,-0.022305 0.028623,0 0.056149,0.010512 0.082229,0.022305 0.02608,0.011793 0.051808,0.025132 0.079736,0.031399 0.02915,0.00654 0.060071,0.005 0.088428,-0.0044 0.028357,-0.0094 0.054071,-0.026643 0.073538,-0.049304"
       style="fill:none;stroke:#003380;stroke-width:0.00932639;stroke-linecap:butt;stroke-linejoin:miter;stroke-miterlimit:4;stroke-dasharray:none;stroke-opacity:1" />
    <path
       style="fill:none;stroke:#003380;stroke-width:0.00932639;stroke-linecap:butt;stroke-linejoin:miter;stroke-miterlimit:4;stroke-dasharray:none;stroke-opacity:1"
       d="m -2.080349,9.2908826 c 0.019467,0.022662 0.045181,0.039902 0.073538,0.049305 0.028357,0.0094 0.059277,0.010941 0.088428,0.0044 0.027928,-0.00627 0.053656,-0.019605 0.079736,-0.031399 0.02608,-0.011793 0.053607,-0.022305 0.082229,-0.022305 0.028623,0 0.056149,0.010512 0.082229,0.022305 0.02608,0.011793 0.051808,0.025131 0.079736,0.031399 0.02915,0.00654 0.060071,0.005 0.088428,-0.0044 0.028357,-0.0094 0.054071,-0.026643 0.073538,-0.049304"
       id="path23062"
       inkscape:connector-curvature="0"
       inkscape:path-effect="#path-effect6117"
       inkscape:original-d="m -2.080349,9.2908826 c 0.054029,0.017848 0.1080177,0.035749 0.1619658,0.053704 0.053948,0.017955 0.1080177,-0.035856 0.1619658,-0.053704 0.053948,-0.017848 0.1080178,0.035749 0.161966,0.053704 0.053948,0.017955 0.1080177,-0.035856 0.1619658,-0.053704" />
    <path
       style="fill:none;stroke:#003380;stroke-width:0.00932639;stroke-linecap:butt;stroke-linejoin:miter;stroke-miterlimit:4;stroke-dasharray:none;stroke-opacity:1"
       d="m -2.080349,9.0182842 c 0.019467,0.022662 0.045181,0.039902 0.073538,0.049305 0.028357,0.0094 0.059277,0.010941 0.088428,0.0044 0.027928,-0.00627 0.053656,-0.019605 0.079736,-0.031399 0.02608,-0.011793 0.053607,-0.022305 0.082229,-0.022305 0.028623,0 0.056149,0.010512 0.082229,0.022305 0.02608,0.011793 0.051808,0.025132 0.079736,0.031399 0.02915,0.00654 0.060071,0.005 0.088428,-0.0044 0.028357,-0.0094 0.054071,-0.026643 0.073538,-0.049304"
       id="path23064"
       inkscape:connector-curvature="0"
       inkscape:path-effect="#path-effect6114"
       inkscape:original-d="m -2.080349,9.0182842 c 0.054029,0.017848 0.1080177,0.035749 0.1619658,0.053704 0.053948,0.017955 0.1080177,-0.035856 0.1619658,-0.053704 0.053948,-0.017848 0.1080178,0.035749 0.161966,0.053704 0.053948,0.017955 0.1080177,-0.035856 0.1619658,-0.053704" />
  </g>
</svg>
